<?xml version="1.0" encoding="UTF-8" standalone="no"?>
<!DOCTYPE svg PUBLIC "-//W3C//DTD SVG 1.1//EN"
 "http://www.w3.org/Graphics/SVG/1.1/DTD/svg11.dtd">
<!-- Generated by graphviz version 2.40.1 (0)
 -->
<!-- Title: snakemake_dag Pages: 1 -->
<svg width="384pt" height="1052pt"
 viewBox="0.00 0.00 384.00 1052.00" xmlns="http://www.w3.org/2000/svg" xmlns:xlink="http://www.w3.org/1999/xlink">
<g id="graph0" class="graph" transform="scale(1 1) rotate(0) translate(4 1048)">
<title>snakemake_dag</title>
<polygon fill="#ffffff" stroke="transparent" points="-4,4 -4,-1048 380,-1048 380,4 -4,4"/>
<!-- 0 -->
<g id="node1" class="node">
<title>0</title>
<path fill="none" stroke="#56d8c9" stroke-width="2" d="M141,-36C141,-36 111,-36 111,-36 105,-36 99,-30 99,-24 99,-24 99,-12 99,-12 99,-6 105,0 111,0 111,0 141,0 141,0 147,0 153,-6 153,-12 153,-12 153,-24 153,-24 153,-30 147,-36 141,-36"/>
<text text-anchor="middle" x="126" y="-15.5" font-family="sans" font-size="10.00" fill="#000000">all</text>
</g>
<!-- 1 -->
<g id="node2" class="node">
<title>1</title>
<path fill="none" stroke="#d87556" stroke-width="2" d="M174,-180C174,-180 78,-180 78,-180 72,-180 66,-174 66,-168 66,-168 66,-156 66,-156 66,-150 72,-144 78,-144 78,-144 174,-144 174,-144 180,-144 186,-150 186,-156 186,-156 186,-168 186,-168 186,-174 180,-180 174,-180"/>
<text text-anchor="middle" x="126" y="-159.5" font-family="sans" font-size="10.00" fill="#000000">update_sex_ancestry</text>
</g>
<!-- 1&#45;&gt;0 -->
<g id="edge1" class="edge">
<title>1&#45;&gt;0</title>
<path fill="none" stroke="#c0c0c0" stroke-width="2" d="M112.6438,-143.5137C106.2492,-133.5235 99.282,-120.6657 96,-108 91.9865,-92.5115 91.9865,-87.4885 96,-72 98.3846,-62.7976 102.7146,-53.4938 107.3568,-45.2621"/>
<polygon fill="#c0c0c0" stroke="#c0c0c0" stroke-width="2" points="110.4813,-46.8582 112.6438,-36.4863 104.4854,-43.2459 110.4813,-46.8582"/>
</g>
<!-- 17 -->
<g id="node18" class="node">
<title>17</title>
<path fill="none" stroke="#d85656" stroke-width="2" d="M235,-108C235,-108 117,-108 117,-108 111,-108 105,-102 105,-96 105,-96 105,-84 105,-84 105,-78 111,-72 117,-72 117,-72 235,-72 235,-72 241,-72 247,-78 247,-84 247,-84 247,-96 247,-96 247,-102 241,-108 235,-108"/>
<text text-anchor="middle" x="176" y="-87.5" font-family="sans" font-size="10.00" fill="#000000">export_sample_metadata</text>
</g>
<!-- 1&#45;&gt;17 -->
<g id="edge28" class="edge">
<title>1&#45;&gt;17</title>
<path fill="none" stroke="#c0c0c0" stroke-width="2" d="M138.6171,-143.8314C144.3172,-135.6232 151.1663,-125.7606 157.4359,-116.7323"/>
<polygon fill="#c0c0c0" stroke="#c0c0c0" stroke-width="2" points="160.3838,-118.6234 163.213,-108.4133 154.6342,-114.6306 160.3838,-118.6234"/>
</g>
<!-- 2 -->
<g id="node3" class="node">
<title>2</title>
<path fill="none" stroke="#56c9d8" stroke-width="2" d="M104.5,-252C104.5,-252 35.5,-252 35.5,-252 29.5,-252 23.5,-246 23.5,-240 23.5,-240 23.5,-228 23.5,-228 23.5,-222 29.5,-216 35.5,-216 35.5,-216 104.5,-216 104.5,-216 110.5,-216 116.5,-222 116.5,-228 116.5,-228 116.5,-240 116.5,-240 116.5,-246 110.5,-252 104.5,-252"/>
<text text-anchor="middle" x="70" y="-231.5" font-family="sans" font-size="10.00" fill="#000000">prepare_update</text>
</g>
<!-- 2&#45;&gt;1 -->
<g id="edge3" class="edge">
<title>2&#45;&gt;1</title>
<path fill="none" stroke="#c0c0c0" stroke-width="2" d="M84.1312,-215.8314C90.5811,-207.5386 98.3445,-197.557 105.4252,-188.4533"/>
<polygon fill="#c0c0c0" stroke="#c0c0c0" stroke-width="2" points="108.3019,-190.4556 111.6786,-180.4133 102.7764,-186.158 108.3019,-190.4556"/>
</g>
<!-- 3 -->
<g id="node4" class="node">
<title>3</title>
<path fill="none" stroke="#56a9d8" stroke-width="2" d="M195.5,-828C195.5,-828 112.5,-828 112.5,-828 106.5,-828 100.5,-822 100.5,-816 100.5,-816 100.5,-804 100.5,-804 100.5,-798 106.5,-792 112.5,-792 112.5,-792 195.5,-792 195.5,-792 201.5,-792 207.5,-798 207.5,-804 207.5,-804 207.5,-816 207.5,-816 207.5,-822 201.5,-828 195.5,-828"/>
<text text-anchor="middle" x="154" y="-807.5" font-family="sans" font-size="10.00" fill="#000000">indiv_missingness</text>
</g>
<!-- 3&#45;&gt;2 -->
<g id="edge5" class="edge">
<title>3&#45;&gt;2</title>
<path fill="none" stroke="#c0c0c0" stroke-width="2" d="M106.2388,-791.9291C87.4488,-783.1454 66.6688,-771.165 51,-756 17.9634,-724.0256 0,-711.9758 0,-666 0,-666 0,-666 0,-378 0,-337.1184 .0331,-324.2155 19,-288 24.4508,-277.5922 32.4815,-267.7529 40.5654,-259.3956"/>
<polygon fill="#c0c0c0" stroke="#c0c0c0" stroke-width="2" points="43.248,-261.6667 47.9318,-252.1634 38.344,-256.6717 43.248,-261.6667"/>
</g>
<!-- 7 -->
<g id="node8" class="node">
<title>7</title>
<path fill="none" stroke="#d8cb56" stroke-width="2" d="M99.5,-324C99.5,-324 40.5,-324 40.5,-324 34.5,-324 28.5,-318 28.5,-312 28.5,-312 28.5,-300 28.5,-300 28.5,-294 34.5,-288 40.5,-288 40.5,-288 99.5,-288 99.5,-288 105.5,-288 111.5,-294 111.5,-300 111.5,-300 111.5,-312 111.5,-312 111.5,-318 105.5,-324 99.5,-324"/>
<text text-anchor="middle" x="70" y="-303.5" font-family="sans" font-size="10.00" fill="#000000">update_psam</text>
</g>
<!-- 3&#45;&gt;7 -->
<g id="edge12" class="edge">
<title>3&#45;&gt;7</title>
<path fill="none" stroke="#c0c0c0" stroke-width="2" d="M125.3258,-791.9184C90.9749,-767.7745 38,-721.5374 38,-666 38,-666 38,-666 38,-450 38,-408.9442 50.5489,-362.8385 59.9299,-334.1076"/>
<polygon fill="#c0c0c0" stroke="#c0c0c0" stroke-width="2" points="63.3411,-334.9443 63.2136,-324.3503 56.7068,-332.7116 63.3411,-334.9443"/>
</g>
<!-- 12 -->
<g id="node13" class="node">
<title>12</title>
<path fill="none" stroke="#59d856" stroke-width="2" d="M194.5,-684C194.5,-684 91.5,-684 91.5,-684 85.5,-684 79.5,-678 79.5,-672 79.5,-672 79.5,-660 79.5,-660 79.5,-654 85.5,-648 91.5,-648 91.5,-648 194.5,-648 194.5,-648 200.5,-648 206.5,-654 206.5,-660 206.5,-660 206.5,-672 206.5,-672 206.5,-678 200.5,-684 194.5,-684"/>
<text text-anchor="middle" x="143" y="-663.5" font-family="sans" font-size="10.00" fill="#000000">extract_common_snps</text>
</g>
<!-- 3&#45;&gt;12 -->
<g id="edge22" class="edge">
<title>3&#45;&gt;12</title>
<path fill="none" stroke="#c0c0c0" stroke-width="2" d="M145.4849,-791.9594C141.1021,-781.6742 136.2224,-768.3991 134,-756 130.3119,-735.4234 132.8934,-711.9094 136.2211,-694.0774"/>
<polygon fill="#c0c0c0" stroke="#c0c0c0" stroke-width="2" points="139.6985,-694.5431 138.2823,-684.0433 132.8417,-693.1345 139.6985,-694.5431"/>
</g>
<!-- 13 -->
<g id="node14" class="node">
<title>13</title>
<path fill="none" stroke="#70d856" stroke-width="2" d="M241,-756C241,-756 155,-756 155,-756 149,-756 143,-750 143,-744 143,-744 143,-732 143,-732 143,-726 149,-720 155,-720 155,-720 241,-720 241,-720 247,-720 253,-726 253,-732 253,-732 253,-744 253,-744 253,-750 247,-756 241,-756"/>
<text text-anchor="middle" x="198" y="-735.5" font-family="sans" font-size="10.00" fill="#000000">find_common_snps</text>
</g>
<!-- 3&#45;&gt;13 -->
<g id="edge24" class="edge">
<title>3&#45;&gt;13</title>
<path fill="none" stroke="#c0c0c0" stroke-width="2" d="M165.1031,-791.8314C170.0674,-783.7079 176.0222,-773.9637 181.4928,-765.0118"/>
<polygon fill="#c0c0c0" stroke="#c0c0c0" stroke-width="2" points="184.5194,-766.7712 186.7474,-756.4133 178.5464,-763.121 184.5194,-766.7712"/>
</g>
<!-- 15 -->
<g id="node16" class="node">
<title>15</title>
<path fill="none" stroke="#d8ac56" stroke-width="2" d="M328,-684C328,-684 284,-684 284,-684 278,-684 272,-678 272,-672 272,-672 272,-660 272,-660 272,-654 278,-648 284,-648 284,-648 328,-648 328,-648 334,-648 340,-654 340,-660 340,-660 340,-672 340,-672 340,-678 334,-684 328,-684"/>
<text text-anchor="middle" x="306" y="-663.5" font-family="sans" font-size="10.00" fill="#000000">check_sex</text>
</g>
<!-- 3&#45;&gt;15 -->
<g id="edge26" class="edge">
<title>3&#45;&gt;15</title>
<path fill="none" stroke="#c0c0c0" stroke-width="2" d="M206.5017,-791.9956C225.7519,-783.4138 246.5791,-771.5592 262,-756 279.2027,-738.643 290.7765,-713.227 297.7181,-693.8272"/>
<polygon fill="#c0c0c0" stroke="#c0c0c0" stroke-width="2" points="301.0501,-694.8994 300.9312,-684.3053 294.4176,-692.6613 301.0501,-694.8994"/>
</g>
<!-- 4 -->
<g id="node5" class="node">
<title>4</title>
<path fill="none" stroke="#56d892" stroke-width="2" d="M265,-972C265,-972 227,-972 227,-972 221,-972 215,-966 215,-960 215,-960 215,-948 215,-948 215,-942 221,-936 227,-936 227,-936 265,-936 265,-936 271,-936 277,-942 277,-948 277,-948 277,-960 277,-960 277,-966 271,-972 265,-972"/>
<text text-anchor="middle" x="246" y="-951.5" font-family="sans" font-size="10.00" fill="#000000">run_plink</text>
</g>
<!-- 4&#45;&gt;3 -->
<g id="edge7" class="edge">
<title>4&#45;&gt;3</title>
<path fill="none" stroke="#c0c0c0" stroke-width="2" d="M214.7389,-937.9481C199.9029,-928.7763 183.2239,-915.9163 173,-900 161.185,-881.6066 156.5729,-857.1491 154.8388,-838.3726"/>
<polygon fill="#c0c0c0" stroke="#c0c0c0" stroke-width="2" points="158.3256,-838.0609 154.1308,-828.3319 151.343,-838.5534 158.3256,-838.0609"/>
</g>
<!-- 6 -->
<g id="node7" class="node">
<title>6</title>
<path fill="none" stroke="#56d8a9" stroke-width="2" d="M297.5,-900C297.5,-900 194.5,-900 194.5,-900 188.5,-900 182.5,-894 182.5,-888 182.5,-888 182.5,-876 182.5,-876 182.5,-870 188.5,-864 194.5,-864 194.5,-864 297.5,-864 297.5,-864 303.5,-864 309.5,-870 309.5,-876 309.5,-876 309.5,-888 309.5,-888 309.5,-894 303.5,-900 297.5,-900"/>
<text text-anchor="middle" x="246" y="-879.5" font-family="sans" font-size="10.00" fill="#000000">calculate_missingness</text>
</g>
<!-- 4&#45;&gt;6 -->
<g id="edge10" class="edge">
<title>4&#45;&gt;6</title>
<path fill="none" stroke="#c0c0c0" stroke-width="2" d="M246,-935.8314C246,-928.131 246,-918.9743 246,-910.4166"/>
<polygon fill="#c0c0c0" stroke="#c0c0c0" stroke-width="2" points="249.5001,-910.4132 246,-900.4133 242.5001,-910.4133 249.5001,-910.4132"/>
</g>
<!-- 8 -->
<g id="node9" class="node">
<title>8</title>
<path fill="none" stroke="#56d873" stroke-width="2" d="M232.5,-396C232.5,-396 131.5,-396 131.5,-396 125.5,-396 119.5,-390 119.5,-384 119.5,-384 119.5,-372 119.5,-372 119.5,-366 125.5,-360 131.5,-360 131.5,-360 232.5,-360 232.5,-360 238.5,-360 244.5,-366 244.5,-372 244.5,-372 244.5,-384 244.5,-384 244.5,-390 238.5,-396 232.5,-396"/>
<text text-anchor="middle" x="182" y="-375.5" font-family="sans" font-size="10.00" fill="#000000">pca_projection_assign</text>
</g>
<!-- 4&#45;&gt;8 -->
<g id="edge15" class="edge">
<title>4&#45;&gt;8</title>
<path fill="none" stroke="#c0c0c0" stroke-width="2" d="M277.1382,-937.3787C315.5976,-914.3289 376,-868.7726 376,-810 376,-810 376,-810 376,-522 376,-459.0539 309.3347,-420.4228 254.163,-399.2302"/>
<polygon fill="#c0c0c0" stroke="#c0c0c0" stroke-width="2" points="255.3113,-395.9231 244.7183,-395.7258 252.8763,-402.4859 255.3113,-395.9231"/>
</g>
<!-- 5 -->
<g id="node6" class="node">
<title>5</title>
<path fill="none" stroke="#5692d8" stroke-width="2" d="M274,-1044C274,-1044 218,-1044 218,-1044 212,-1044 206,-1038 206,-1032 206,-1032 206,-1020 206,-1020 206,-1014 212,-1008 218,-1008 218,-1008 274,-1008 274,-1008 280,-1008 286,-1014 286,-1020 286,-1020 286,-1032 286,-1032 286,-1038 280,-1044 274,-1044"/>
<text text-anchor="middle" x="246" y="-1023.5" font-family="sans" font-size="10.00" fill="#000000">reheader_vcf</text>
</g>
<!-- 5&#45;&gt;4 -->
<g id="edge9" class="edge">
<title>5&#45;&gt;4</title>
<path fill="none" stroke="#c0c0c0" stroke-width="2" d="M246,-1007.8314C246,-1000.131 246,-990.9743 246,-982.4166"/>
<polygon fill="#c0c0c0" stroke="#c0c0c0" stroke-width="2" points="249.5001,-982.4132 246,-972.4133 242.5001,-982.4133 249.5001,-982.4132"/>
</g>
<!-- 6&#45;&gt;3 -->
<g id="edge8" class="edge">
<title>6&#45;&gt;3</title>
<path fill="none" stroke="#c0c0c0" stroke-width="2" d="M222.7845,-863.8314C211.453,-854.9632 197.6536,-844.1637 185.3973,-834.5718"/>
<polygon fill="#c0c0c0" stroke="#c0c0c0" stroke-width="2" points="187.2402,-831.5697 177.2081,-828.1628 182.926,-837.0822 187.2402,-831.5697"/>
</g>
<!-- 7&#45;&gt;2 -->
<g id="edge6" class="edge">
<title>7&#45;&gt;2</title>
<path fill="none" stroke="#c0c0c0" stroke-width="2" d="M70,-287.8314C70,-280.131 70,-270.9743 70,-262.4166"/>
<polygon fill="#c0c0c0" stroke="#c0c0c0" stroke-width="2" points="73.5001,-262.4132 70,-252.4133 66.5001,-262.4133 73.5001,-262.4132"/>
</g>
<!-- 8&#45;&gt;7 -->
<g id="edge11" class="edge">
<title>8&#45;&gt;7</title>
<path fill="none" stroke="#c0c0c0" stroke-width="2" d="M153.7377,-359.8314C139.5448,-350.7074 122.1718,-339.539 106.9364,-329.7449"/>
<polygon fill="#c0c0c0" stroke="#c0c0c0" stroke-width="2" points="108.5578,-326.6263 98.2533,-324.1628 104.7724,-332.5146 108.5578,-326.6263"/>
</g>
<!-- 16 -->
<g id="node17" class="node">
<title>16</title>
<path fill="none" stroke="#afd856" stroke-width="2" d="M217,-252C217,-252 147,-252 147,-252 141,-252 135,-246 135,-240 135,-240 135,-228 135,-228 135,-222 141,-216 147,-216 147,-216 217,-216 217,-216 223,-216 229,-222 229,-228 229,-228 229,-240 229,-240 229,-246 223,-252 217,-252"/>
<text text-anchor="middle" x="182" y="-231.5" font-family="sans" font-size="10.00" fill="#000000">separate_indivs</text>
</g>
<!-- 8&#45;&gt;16 -->
<g id="edge27" class="edge">
<title>8&#45;&gt;16</title>
<path fill="none" stroke="#c0c0c0" stroke-width="2" d="M182,-359.7623C182,-335.201 182,-291.2474 182,-262.3541"/>
<polygon fill="#c0c0c0" stroke="#c0c0c0" stroke-width="2" points="185.5001,-262.0896 182,-252.0896 178.5001,-262.0897 185.5001,-262.0896"/>
</g>
<!-- 9 -->
<g id="node10" class="node">
<title>9</title>
<path fill="none" stroke="#5673d8" stroke-width="2" d="M206.5,-468C206.5,-468 157.5,-468 157.5,-468 151.5,-468 145.5,-462 145.5,-456 145.5,-456 145.5,-444 145.5,-444 145.5,-438 151.5,-432 157.5,-432 157.5,-432 206.5,-432 206.5,-432 212.5,-432 218.5,-438 218.5,-444 218.5,-444 218.5,-456 218.5,-456 218.5,-462 212.5,-468 206.5,-468"/>
<text text-anchor="middle" x="182" y="-447.5" font-family="sans" font-size="10.00" fill="#000000">pca_project</text>
</g>
<!-- 9&#45;&gt;8 -->
<g id="edge13" class="edge">
<title>9&#45;&gt;8</title>
<path fill="none" stroke="#c0c0c0" stroke-width="2" d="M182,-431.8314C182,-424.131 182,-414.9743 182,-406.4166"/>
<polygon fill="#c0c0c0" stroke="#c0c0c0" stroke-width="2" points="185.5001,-406.4132 182,-396.4133 178.5001,-406.4133 185.5001,-406.4132"/>
</g>
<!-- 10 -->
<g id="node11" class="node">
<title>10</title>
<path fill="none" stroke="#8fd856" stroke-width="2" d="M210,-540C210,-540 154,-540 154,-540 148,-540 142,-534 142,-528 142,-528 142,-516 142,-516 142,-510 148,-504 154,-504 154,-504 210,-504 210,-504 216,-504 222,-510 222,-516 222,-516 222,-528 222,-528 222,-534 216,-540 210,-540"/>
<text text-anchor="middle" x="182" y="-519.5" font-family="sans" font-size="10.00" fill="#000000">final_pruning</text>
</g>
<!-- 10&#45;&gt;9 -->
<g id="edge17" class="edge">
<title>10&#45;&gt;9</title>
<path fill="none" stroke="#c0c0c0" stroke-width="2" d="M182,-503.8314C182,-496.131 182,-486.9743 182,-478.4166"/>
<polygon fill="#c0c0c0" stroke="#c0c0c0" stroke-width="2" points="185.5001,-478.4132 182,-468.4133 178.5001,-478.4133 185.5001,-478.4132"/>
</g>
<!-- 11 -->
<g id="node12" class="node">
<title>11</title>
<path fill="none" stroke="#d88d56" stroke-width="2" d="M197,-612C197,-612 141,-612 141,-612 135,-612 129,-606 129,-600 129,-600 129,-588 129,-588 129,-582 135,-576 141,-576 141,-576 197,-576 197,-576 203,-576 209,-582 209,-588 209,-588 209,-600 209,-600 209,-606 203,-612 197,-612"/>
<text text-anchor="middle" x="169" y="-591.5" font-family="sans" font-size="10.00" fill="#000000">prune_1000g</text>
</g>
<!-- 11&#45;&gt;9 -->
<g id="edge18" class="edge">
<title>11&#45;&gt;9</title>
<path fill="none" stroke="#c0c0c0" stroke-width="2" d="M153.0095,-575.9169C145.3462,-566.0371 136.9834,-553.1563 133,-540 128.3635,-524.6865 127.2373,-518.9262 133,-504 137.1192,-493.3306 144.4336,-483.4665 152.1749,-475.1681"/>
<polygon fill="#c0c0c0" stroke="#c0c0c0" stroke-width="2" points="154.7348,-477.558 159.325,-468.0091 149.7819,-472.6113 154.7348,-477.558"/>
</g>
<!-- 11&#45;&gt;10 -->
<g id="edge20" class="edge">
<title>11&#45;&gt;10</title>
<path fill="none" stroke="#c0c0c0" stroke-width="2" d="M172.2804,-575.8314C173.6708,-568.131 175.3241,-558.9743 176.8692,-550.4166"/>
<polygon fill="#c0c0c0" stroke="#c0c0c0" stroke-width="2" points="180.3428,-550.8761 178.6754,-540.4133 173.4542,-549.6322 180.3428,-550.8761"/>
</g>
<!-- 14 -->
<g id="node15" class="node">
<title>14</title>
<path fill="none" stroke="#c6d856" stroke-width="2" d="M297.5,-540C297.5,-540 252.5,-540 252.5,-540 246.5,-540 240.5,-534 240.5,-528 240.5,-528 240.5,-516 240.5,-516 240.5,-510 246.5,-504 252.5,-504 252.5,-504 297.5,-504 297.5,-504 303.5,-504 309.5,-510 309.5,-516 309.5,-516 309.5,-528 309.5,-528 309.5,-534 303.5,-540 297.5,-540"/>
<text text-anchor="middle" x="275" y="-519.5" font-family="sans" font-size="10.00" fill="#000000">pca_1000g</text>
</g>
<!-- 11&#45;&gt;14 -->
<g id="edge25" class="edge">
<title>11&#45;&gt;14</title>
<path fill="none" stroke="#c0c0c0" stroke-width="2" d="M195.7483,-575.8314C209.0553,-566.7927 225.316,-555.7476 239.6375,-546.0198"/>
<polygon fill="#c0c0c0" stroke="#c0c0c0" stroke-width="2" points="241.9547,-548.677 248.2603,-540.1628 238.0215,-542.8864 241.9547,-548.677"/>
</g>
<!-- 12&#45;&gt;8 -->
<g id="edge14" class="edge">
<title>12&#45;&gt;8</title>
<path fill="none" stroke="#c0c0c0" stroke-width="2" d="M132.9765,-647.6094C128.0019,-637.4366 122.5267,-624.3803 120,-612 103.9393,-533.3068 103.1195,-505.2765 136,-432 140.5849,-421.7822 147.7169,-412.0097 155.008,-403.6554"/>
<polygon fill="#c0c0c0" stroke="#c0c0c0" stroke-width="2" points="157.7595,-405.8346 161.9691,-396.112 152.6152,-401.0874 157.7595,-405.8346"/>
</g>
<!-- 12&#45;&gt;11 -->
<g id="edge21" class="edge">
<title>12&#45;&gt;11</title>
<path fill="none" stroke="#c0c0c0" stroke-width="2" d="M149.5609,-647.8314C152.4027,-639.9617 155.7937,-630.5712 158.9419,-621.8533"/>
<polygon fill="#c0c0c0" stroke="#c0c0c0" stroke-width="2" points="162.2462,-623.0076 162.3508,-612.4133 155.6623,-620.63 162.2462,-623.0076"/>
</g>
<!-- 13&#45;&gt;12 -->
<g id="edge23" class="edge">
<title>13&#45;&gt;12</title>
<path fill="none" stroke="#c0c0c0" stroke-width="2" d="M184.1212,-719.8314C177.7864,-711.5386 170.1616,-701.557 163.2074,-692.4533"/>
<polygon fill="#c0c0c0" stroke="#c0c0c0" stroke-width="2" points="165.9175,-690.2353 157.0657,-684.4133 160.3548,-694.4847 165.9175,-690.2353"/>
</g>
<!-- 14&#45;&gt;9 -->
<g id="edge19" class="edge">
<title>14&#45;&gt;9</title>
<path fill="none" stroke="#c0c0c0" stroke-width="2" d="M251.5322,-503.8314C239.9673,-494.8779 225.8596,-483.9558 213.3817,-474.2955"/>
<polygon fill="#c0c0c0" stroke="#c0c0c0" stroke-width="2" points="215.5102,-471.5171 205.4603,-468.1628 211.225,-477.0521 215.5102,-471.5171"/>
</g>
<!-- 15&#45;&gt;8 -->
<g id="edge16" class="edge">
<title>15&#45;&gt;8</title>
<path fill="none" stroke="#c0c0c0" stroke-width="2" d="M312.8613,-647.8158C323.405,-616.8282 340.2625,-552.443 319,-504 299.3882,-459.3177 255.2449,-423.5078 222.3346,-401.6502"/>
<polygon fill="#c0c0c0" stroke="#c0c0c0" stroke-width="2" points="224.1028,-398.6255 213.8064,-396.1283 220.2982,-404.5013 224.1028,-398.6255"/>
</g>
<!-- 16&#45;&gt;1 -->
<g id="edge4" class="edge">
<title>16&#45;&gt;1</title>
<path fill="none" stroke="#c0c0c0" stroke-width="2" d="M167.8688,-215.8314C161.4189,-207.5386 153.6555,-197.557 146.5748,-188.4533"/>
<polygon fill="#c0c0c0" stroke="#c0c0c0" stroke-width="2" points="149.2236,-186.158 140.3214,-180.4133 143.6981,-190.4556 149.2236,-186.158"/>
</g>
<!-- 17&#45;&gt;0 -->
<g id="edge2" class="edge">
<title>17&#45;&gt;0</title>
<path fill="none" stroke="#c0c0c0" stroke-width="2" d="M163.3829,-71.8314C157.6828,-63.6232 150.8337,-53.7606 144.5641,-44.7323"/>
<polygon fill="#c0c0c0" stroke="#c0c0c0" stroke-width="2" points="147.3658,-42.6306 138.787,-36.4133 141.6162,-46.6234 147.3658,-42.6306"/>
</g>
</g>
</svg>
